<svg id="Layer_1" data-name="Layer 1" xmlns="http://www.w3.org/2000/svg" viewBox="0 0 167.28 141.56" width="24" height="24"><defs></defs><path class="cls-1" d="M130.91 109.08a12 12 0 0 0 4.95-6.61 9.94 9.94 0 0 1 1.69-3.22c2.18-2.44 1.48-4.86.09-7.21a109.13 109.13 0 0 0-7.52-10.89 12.21 12.21 0 0 1-2.26-5.4 1.82 1.82 0 0 1 .66-1.85c2.47-2.19 7.06-1 7.61 2.23.63 3.7 2.7 6.64 4.31 9.83.5 1 1.29 2.4 2.43 2.14s1.42-1.82 1.47-3.08c.11-3.36.83-6.68.72-10.07-.06-1.69-.18-3.36-.32-5-.19-2.22.83-3.55 2.83-3.89a4.14 4.14 0 0 1 4.3 2.58 7.25 7.25 0 0 1-.45 6.23 6.47 6.47 0 0 0-.85 3.33c0 2.9.26 5.81-.24 8.7a1.57 1.57 0 0 0 .6 1.71c.59.39 1.14.06 1.62-.26 2.64-1.79 5.39-3.46 7.55-5.86a3.64 3.64 0 0 1 4.2-1.28 4.51 4.51 0 0 1 3 3.77c.29 1.6-1.89 4.34-3.86 4.55-3.37.36-5.85 2.42-8.53 4.1-6.34 4-10.63 9.71-14.36 16-1.3 2.21-3.25 4-4.6 6.3-2.18 3.63-4.51 7.17-6.8 10.73-1.66 2.58-3.49 5-6.85 5.43-2.12.29-2.84-.14-3.49-2.17-1.45-4.51-1-9.07-.45-13.64.35-3.11.61-6.23.88-9.35.05-.63.13-1.39-.58-1.7s-1.14.34-1.52.84c-3 3.92-6.53 7.51-7.73 12.48-.68 2.84-2.09 5.38-2.95 8.14-1.32 4.26-4.34 5.44-8.26 3.29-3.18-1.74-5.68-4.39-8.49-6.63-2.31-1.84-4.52-3.82-6.73-5.77s-5.09-2.46-7.77-3.36c-.43-.15-1-.26-1.22.29s.32.67.62.92a43.44 43.44 0 0 1 6.85 7.82 45.15 45.15 0 0 1 6.16 10.85c.13.32.3.63.43 1 1.49 3.77-.16 6.33-4.24 6.5a22.41 22.41 0 0 1-11.2-2.78c-4.39-2.24-8.6-4.84-13.35-6.36a10.8 10.8 0 0 1-2.92-1.53c-2.85-2-6.07-3.39-9.07-5.15-2-1.15-4.37-1.13-6.62-1.24-4.35-.21-8.7-.25-13.05-.34a18.08 18.08 0 0 0-3 .15 5.47 5.47 0 0 1-6.47-5.45c-.08-3.53 1.37-4.77 4.83-4.14a11.28 11.28 0 0 1 4.52 1.68 6 6 0 0 0 5.09 1.19c1.4-.37 1.65-1.1 1-2.3a19.74 19.74 0 0 0-5-5.26c-3.23-2.65-6.1-5.58-5.93-10.26a3 3 0 0 1 1.54-2.9 2.81 2.81 0 0 1 3.07.55 9.72 9.72 0 0 1 3.69 4.74 11.55 11.55 0 0 0 4.59 5.74c1.28.9 2.44 2 3.71 2.88s2.4.56 2.58-1.19c.24-2.31-.54-4.48-1.07-6.67-.2-.85-.53-1.66-.73-2.51a4.81 4.81 0 0 1 4.49-6.19 3.35 3.35 0 0 1 4 3 10 10 0 0 1 .08 4.14c-.41 1.7.34 3.32.53 5 .33 2.88.54 5.77.76 8.66a2.71 2.71 0 0 0 1.54 2.55c3.33 1.36 6.33 3.44 9.75 4.61.52.18 1.14.62 1.61 0s0-1.22-.33-1.74c-2.69-3.86-5.71-7.47-8.36-11.36-1.81-2.66-3.7-5.31-4.52-8.39-1-3.65-.69-6.17 4.11-6.13 6.38.06 12.21 2.5 18.11 4.8a4.3 4.3 0 0 0-1-3c-2.32-3.27-4.71-6.49-6.91-9.84-1.79-2.56-2.05-5.63-2.46-8.56-.58-4.14-1-8.29-1.47-12.44-.08-.74-.28-1.45-1.11-1.56a2.49 2.49 0 0 0-2.49 1.29c-1 1.68-1.93 3.45-3 5.1-1.9 2.92-3 6.27-5 9.14-1.36 1.92-2.94 2.72-5.17 2.33a8 8 0 0 1-3.71-1.42c-3.68-2.94-8-5-11.45-8.21-2.52-2.3-5.63-3.52-8.66-4.75-5.21-2.11-10.4-4.34-16-5.4A4.15 4.15 0 0 1 0 57.27c.21-1.67 3.07-3 5-2.22a12.69 12.69 0 0 1 3.7 2.32 11.62 11.62 0 0 0 6.78 3.25 2.3 2.3 0 0 0 2.23-.62c.62-.83 0-1.59-.45-2.21a58.21 58.21 0 0 0-3.93-5.11c-2-2.22-3.38-4.86-5.07-7.28a3.15 3.15 0 0 1 1-4.68 7.27 7.27 0 0 1 .89-.55c3.49-1.73 6.13-.27 6.13 3.62a18.86 18.86 0 0 0 2.09 8.53 7.39 7.39 0 0 0 3.53 3.47c1.79.85 3-.06 2.77-2.05a5.46 5.46 0 0 0-.44-1.86c-1.49-2.92-1.55-6.18-2.32-9.26-.39-1.59.31-2.38 1.74-2.87 2.77-.94 4.92-.51 6.31 1.32.56.74.94 1.62.36 2.41-1.52 2.09-1.14 4.46-1 6.74A52 52 0 0 0 31.48 62c.72 2.57 2.66 4.33 4.42 6.16A25.36 25.36 0 0 0 39.59 71c1.61 1.14 2.65.86 3.4-1a50.1 50.1 0 0 0 1.58-4.61c1.68-5.56 4.76-10.44 7.69-15.37a52.68 52.68 0 0 0 2.93-6.69c.58-1.37-.33-2.83-.46-4.27a41.54 41.54 0 0 0-1.1-6.69 10.21 10.21 0 0 0-2.72-5.14c-2.29-2.18-2.12-8-.22-10.24 3.05-3.58 4.58-7.95 6.2-12.31 1.89-5 4.11-5.78 8.49-3.36a37.92 37.92 0 0 1 5.93 4c2 1.64 4.37 2.09 6.81 2.35 4.46.48 8.76 5 7.12 9.94-1.24 3.68-.13 6.39 2.26 9.1s3.8 6 6.57 8.32A24.17 24.17 0 0 0 99 38.56c6.65 3.24 12.63 7.59 18.87 11.49 2.56 1.6 4 1.1 4.71-1.88.83-3.5.5-7 .33-10.58a4.29 4.29 0 0 0-.61-2c-3-4.83-5-10.23-8.5-14.79a7.59 7.59 0 0 1-1.5-3.8 2.41 2.41 0 0 1 2.53-3c2.58-.18 4.13.84 5.09 3.32.76 2 .88 4.08 1.74 6a18.53 18.53 0 0 0 2.62 4.5c.41.49.85 1.07 1.59.77a1.56 1.56 0 0 0 1-1.54c0-1.27-.22-2.54-.27-3.81-.14-4 .27-8-.65-12-.37-1.58-.39-3.32 1.17-4.64 2.23-1.9 5.05-1.57 6.5 1a13.84 13.84 0 0 1 1.19 2.89 2.22 2.22 0 0 1-.61 2.51c-1.75 1.29-2.08 3.1-2.08 5.07a38.06 38.06 0 0 1-.33 5.56 6.84 6.84 0 0 0 .07 2.26c.23 1.17.17 2.67 1.52 3.12s1.9-.92 2.6-1.67c2.28-2.47 4.48-5 6.68-7.56 1.23-1.43 2.4-1.64 4.34-.68 2.1 1 3.66 3.13 3.08 4.54a6.25 6.25 0 0 1-3.47 3.26c-1.22.53-2.45 1.08-3.71 1.5a10.84 10.84 0 0 0-4.63 3.27 85.28 85.28 0 0 0-6.81 8.59 13.46 13.46 0 0 0-2.17 6.54 37.26 37.26 0 0 1-3.94 14.2c-1.35 2.53-2.82 3.21-5.44 2a183.36 183.36 0 0 1-15-7.44 9.2 9.2 0 0 0-2.91-1.47 1.49 1.49 0 0 0-1.47.3c-.44.51-.06 1 .2 1.43 1 1.52 2.05 3 2.93 4.53 1.7 3 3.28 6.15 4.91 9.22 2 3.84 2.07 7.91 1.38 12a54.38 54.38 0 0 0-.52 9.9c0 .51-.09 1.15.53 1.35a1.35 1.35 0 0 0 1.5-.66c.77-1.16 1.42-2.4 2.16-3.58 2.11-3.39 3.88-7 7-9.68 2.36-2 4.76-1.69 6.3 1.09s2.27 6.08 3.07 9.23c1.67 6.56 1.51 13.15.92 19.86z"></path></svg>